<svg width="24" height="24" viewBox="0 0 24 24" fill="none" xmlns="http://www.w3.org/2000/svg">
<path d="M16.8287 3.51817C16.1231 3.11637 15.3734 2.80278 14.5894 2.58718V1.78849C14.5894 0.803593 13.7858 0 12.8009 0H11.2084C10.2235 0 9.41992 0.803593 9.41992 1.78849V2.58718C8.63592 2.80278 7.88623 3.11147 7.18064 3.51817L6.61224 2.95468C6.27414 2.61658 5.82335 2.43038 5.34805 2.43038C4.87276 2.43038 4.42196 2.61658 4.08386 2.95468L2.95687 4.08167C2.61878 4.41976 2.43258 4.87056 2.43258 5.34586C2.43258 5.82115 2.61878 6.27195 2.95687 6.61004L3.52037 7.17354C3.11857 7.87913 2.80497 8.62883 2.58938 9.41282H1.79068C0.805791 9.41282 0.00219727 10.2164 0.00219727 11.2013V12.7938C0.00219727 13.7787 0.805791 14.5823 1.79068 14.5823H2.58938C2.80497 15.3663 3.11367 16.116 3.52037 16.8216L2.95687 17.39C2.26108 18.0858 2.26108 19.2225 2.95687 19.9183L4.08386 21.0453C4.42196 21.3834 4.87276 21.5696 5.34805 21.5696C5.82335 21.5696 6.27414 21.3834 6.61224 21.0453L7.17574 20.4818C7.88133 20.8836 8.63102 21.1972 9.41502 21.4128V22.2115C9.41502 23.1964 10.2186 24 11.2035 24H12.796C13.7809 24 14.5845 23.1964 14.5845 22.2115V21.4128C15.3685 21.1972 16.1182 20.8885 16.8238 20.4818L17.3873 21.0453C17.7253 21.3834 18.1761 21.5696 18.6514 21.5696C19.1267 21.5696 19.5775 21.3834 19.9156 21.0453L21.0426 19.9183C21.7384 19.2225 21.7384 18.0858 21.0426 17.39L20.4791 16.8265C20.8809 16.1209 21.1945 15.3712 21.4101 14.5872H22.2088C23.1937 14.5872 23.9973 13.7836 23.9973 12.7987V11.2062C23.9973 10.2213 23.1937 9.41772 22.2088 9.41772H21.4101C21.1945 8.63373 20.8858 7.88403 20.4791 7.17844L21.0426 6.61494C21.7384 5.91915 21.7384 4.78236 21.0426 4.08657L19.9156 2.95958C19.5775 2.62148 19.1267 2.43528 18.6514 2.43528C18.1761 2.43528 17.7253 2.62148 17.3873 2.95958L16.8287 3.51817ZM18.5828 4.14047C18.6269 4.09637 18.6906 4.09637 18.7347 4.14047L19.8617 5.26746C19.9058 5.31156 19.9058 5.37526 19.8617 5.41935L18.8278 6.45325C18.5436 6.73744 18.4995 7.18334 18.7249 7.51654C19.3178 8.39853 19.7196 9.37852 19.9254 10.4173C20.0038 10.8093 20.3468 11.0935 20.7486 11.0935H22.2137C22.2725 11.0935 22.3215 11.1425 22.3215 11.2013V12.7938C22.3215 12.8526 22.2725 12.9016 22.2137 12.9016H20.7486C20.3468 12.9016 20.0038 13.1858 19.9254 13.5778C19.7196 14.6215 19.3129 15.5966 18.7249 16.4786C18.4995 16.8118 18.5436 17.2577 18.8278 17.5419L19.8617 18.5757C19.9058 18.6198 19.9058 18.6835 19.8617 18.7276L18.7347 19.8546C18.6955 19.8987 18.6269 19.8938 18.5828 19.8546L17.549 18.8207C17.2648 18.5365 16.8189 18.4924 16.4857 18.7178C15.5988 19.3107 14.6237 19.7125 13.5849 19.9183C13.1929 19.9967 12.9087 20.3397 12.9087 20.7415V22.2066C12.9087 22.2654 12.8597 22.3144 12.8009 22.3144H11.2084C11.1496 22.3144 11.1006 22.2654 11.1006 22.2066V20.7415C11.1006 20.3397 10.8164 19.9967 10.4244 19.9183C9.38562 19.7125 8.40563 19.3058 7.52363 18.7178C7.38154 18.6247 7.21984 18.5757 7.05814 18.5757C6.84254 18.5757 6.62694 18.659 6.46524 18.8207L5.43135 19.8546C5.38725 19.8987 5.32355 19.8987 5.27945 19.8546L4.15246 18.7276C4.10836 18.6835 4.10836 18.6198 4.15246 18.5757L5.18635 17.5419C5.47055 17.2577 5.51465 16.8118 5.28925 16.4786C4.69636 15.5917 4.29456 14.6166 4.08876 13.5778C4.01036 13.1858 3.66737 12.9016 3.26557 12.9016H1.79068C1.73188 12.9016 1.68288 12.8526 1.68288 12.7938V11.2013C1.68288 11.1425 1.73188 11.0935 1.79068 11.0935H3.25577C3.65757 11.0935 4.00056 10.8093 4.07896 10.4173C4.28476 9.37852 4.69146 8.39853 5.27945 7.51654C5.49995 7.18334 5.46075 6.73744 5.17655 6.45325L4.14266 5.41935C4.12306 5.39976 4.11326 5.37526 4.11326 5.34096C4.11326 5.31156 4.12306 5.28706 4.14266 5.26746L5.26965 4.14047C5.31375 4.09637 5.37745 4.09637 5.42155 4.14047L6.45544 5.17436C6.73964 5.45855 7.18554 5.50265 7.51873 5.27726C8.40563 4.68436 9.38072 4.28256 10.4195 4.07677C10.8115 3.99837 11.0957 3.65537 11.0957 3.25357V1.78849C11.0957 1.72969 11.1447 1.68069 11.2035 1.68069H12.796C12.8548 1.68069 12.9038 1.72969 12.9038 1.78849V3.25357C12.9038 3.65537 13.188 3.99837 13.58 4.07677C14.6188 4.28256 15.5988 4.68926 16.4808 5.27726C16.814 5.49775 17.2599 5.45855 17.5441 5.17436L18.5828 4.14047Z" fill="white" fill-opacity="0.85"/>
<circle cx="12" cy="12" r="5.5" stroke="#F4F4F4"/>
</svg>
