<svg width="25" height="25" viewBox="0 0 25 25" fill="none" xmlns="http://www.w3.org/2000/svg">
<circle cx="11" cy="11" r="7.5" stroke="white"/>
<circle cx="11" cy="11" r="9.5" stroke="white"/>
<path d="M17 18.4141L18.4142 16.9998L23.364 21.9496C23.7545 22.3401 23.7545 22.9733 23.364 23.3638C22.9734 23.7543 22.3403 23.7543 21.9497 23.3638L17 18.4141Z" fill="white"/>
<path d="M7.83922 11.8039C7.93271 11.3365 8.34312 11 8.8198 11H13.1802C13.6569 11 14.0673 11.3365 14.1608 11.8039L14.7608 14.8039C14.8845 15.4227 14.4112 16 13.7802 16H8.2198C7.58876 16 7.11546 15.4227 7.23922 14.8039L7.83922 11.8039Z" fill="white"/>
<circle cx="11" cy="8" r="2" fill="white"/>
</svg>
